<svg width="657" height="643" viewBox="0 0 657 643" fill="none" xmlns="http://www.w3.org/2000/svg">
<rect width="657" height="643" fill="#E6D5B9"/>
<path d="M332.027 0.9409C331.442 0.354264 330.492 0.352832 329.905 0.937703L320.345 10.4693C319.758 11.0541 319.757 12.0039 320.342 12.5906C320.927 13.1772 321.877 13.1787 322.463 12.5938L330.961 4.1213L339.434 12.6194C340.019 13.206 340.968 13.2074 341.555 12.6226C342.142 12.0376 342.143 11.0879 341.558 10.5012L332.027 0.9409ZM331.5 642.002L332.464 2.00223L329.464 1.99771L328.5 641.998L331.5 642.002Z" fill="black"/>
<path d="M651.061 323.052C651.646 322.466 651.646 321.517 651.061 320.931L641.515 311.385C640.929 310.799 639.979 310.799 639.393 311.385C638.807 311.971 638.807 312.921 639.393 313.506L647.879 321.992L639.393 330.477C638.808 331.063 638.808 332.013 639.394 332.598C639.979 333.184 640.929 333.184 641.515 332.598L651.061 323.052ZM10 323.5L650 323.492L650 320.492L9.99998 320.5L10 323.5Z" fill="black"/>
<line x1="319" y1="20" x2="344" y2="20" stroke="#8E5B07" stroke-width="4"/>
<line x1="319" y1="170" x2="344" y2="170" stroke="#8E5B07" stroke-width="4"/>
<line x1="318" y1="469" x2="343" y2="469" stroke="#8E5B07" stroke-width="4"/>
<line x1="31" y1="470.5" x2="331" y2="470.5" stroke="#8E5B07" stroke-width="3"/>
<line x1="319" y1="620" x2="344" y2="620" stroke="#8E5B07" stroke-width="4"/>
<line x1="479" y1="335" x2="479" y2="310" stroke="#8E5B07" stroke-width="4"/>
<line x1="629" y1="335" x2="629" y2="310" stroke="#8E5B07" stroke-width="4"/>
<line x1="29.5" y1="472" x2="29.5" y2="322" stroke="#8E5B07" stroke-width="3"/>
<line x1="179" y1="335" x2="179" y2="310" stroke="#8E5B07" stroke-width="4"/>
<line x1="29" y1="335" x2="29" y2="310" stroke="#8E5B07" stroke-width="4"/>
<g filter="url(#filter0_d_0_1)">
<path d="M363.651 180V158.182H372.664C374.298 158.182 375.707 158.477 376.893 159.066C378.087 159.648 379.006 160.487 379.653 161.58C380.299 162.667 380.622 163.956 380.622 165.447C380.622 166.96 380.292 168.246 379.631 169.304C378.971 170.355 378.033 171.158 376.819 171.712C375.604 172.259 374.166 172.532 372.504 172.532H366.805V168.377H371.524C372.32 168.377 372.984 168.274 373.516 168.068C374.056 167.855 374.464 167.536 374.741 167.109C375.018 166.676 375.157 166.122 375.157 165.447C375.157 164.773 375.018 164.215 374.741 163.775C374.464 163.327 374.056 162.994 373.516 162.773C372.977 162.546 372.313 162.433 371.524 162.433H368.925V180H363.651ZM375.935 170.028L381.368 180H375.615L370.288 170.028H375.935ZM393.614 157.159L386.583 183.281H382.14L389.172 157.159H393.614ZM395.513 180V176.207L403.471 169.24C404.068 168.7 404.575 168.207 404.994 167.759C405.414 167.305 405.733 166.85 405.953 166.396C406.173 165.934 406.284 165.433 406.284 164.893C406.284 164.29 406.152 163.775 405.889 163.349C405.627 162.915 405.264 162.582 404.803 162.347C404.341 162.113 403.812 161.996 403.215 161.996C402.612 161.996 402.083 162.12 401.628 162.369C401.173 162.61 400.818 162.962 400.563 163.423C400.314 163.885 400.19 164.446 400.19 165.107H395.193C395.193 163.622 395.527 162.34 396.195 161.261C396.862 160.181 397.8 159.35 399.007 158.768C400.222 158.178 401.632 157.884 403.237 157.884C404.892 157.884 406.33 158.161 407.551 158.714C408.773 159.268 409.718 160.043 410.385 161.037C411.06 162.024 411.397 163.171 411.397 164.478C411.397 165.309 411.23 166.133 410.896 166.95C410.563 167.766 409.963 168.668 409.096 169.656C408.237 170.643 407.015 171.825 405.431 173.203L402.821 175.611V175.749H411.664V180H395.513Z" fill="black"/>
</g>
<g filter="url(#filter1_d_0_1)">
<path d="M356.124 618.088V622.094H346.024V618.088H356.124ZM359.802 631V609.182H368.814C370.448 609.182 371.858 609.477 373.044 610.066C374.237 610.648 375.157 611.487 375.803 612.58C376.449 613.667 376.773 614.956 376.773 616.447C376.773 617.96 376.442 619.246 375.782 620.304C375.121 621.355 374.184 622.158 372.969 622.712C371.755 623.259 370.317 623.532 368.655 623.532H362.955V619.377H367.675C368.47 619.377 369.134 619.274 369.667 619.068C370.206 618.855 370.615 618.536 370.892 618.109C371.169 617.676 371.307 617.122 371.307 616.447C371.307 615.773 371.169 615.215 370.892 614.775C370.615 614.327 370.206 613.994 369.667 613.773C369.127 613.546 368.463 613.433 367.675 613.433H365.075V631H359.802ZM372.085 621.028L377.518 631H371.765L366.439 621.028H372.085Z" fill="black"/>
</g>
<g filter="url(#filter2_d_0_1)">
<path d="M355.124 477.088V481.094H345.024V477.088H355.124ZM358.802 490V468.182H367.814C369.448 468.182 370.858 468.477 372.044 469.066C373.237 469.648 374.157 470.487 374.803 471.58C375.449 472.667 375.773 473.956 375.773 475.447C375.773 476.96 375.442 478.246 374.782 479.304C374.121 480.355 373.184 481.158 371.969 481.712C370.755 482.259 369.317 482.532 367.655 482.532H361.955V478.377H366.675C367.47 478.377 368.134 478.274 368.667 478.068C369.206 477.855 369.615 477.536 369.892 477.109C370.169 476.676 370.307 476.122 370.307 475.447C370.307 474.773 370.169 474.215 369.892 473.775C369.615 473.327 369.206 472.994 368.667 472.773C368.127 472.546 367.463 472.433 366.675 472.433H364.075V490H358.802ZM371.085 480.028L376.518 490H370.765L365.439 480.028H371.085ZM388.764 467.159L381.733 493.281H377.291L384.322 467.159H388.764ZM390.663 490V486.207L398.621 479.24C399.218 478.7 399.726 478.207 400.145 477.759C400.564 477.305 400.884 476.85 401.104 476.396C401.324 475.934 401.434 475.433 401.434 474.893C401.434 474.29 401.303 473.775 401.04 473.349C400.777 472.915 400.415 472.582 399.953 472.347C399.491 472.113 398.962 471.996 398.366 471.996C397.762 471.996 397.233 472.12 396.778 472.369C396.324 472.61 395.969 472.962 395.713 473.423C395.464 473.885 395.34 474.446 395.34 475.107H390.344C390.344 473.622 390.678 472.34 391.345 471.261C392.013 470.181 392.95 469.35 394.158 468.768C395.372 468.178 396.782 467.884 398.387 467.884C400.042 467.884 401.48 468.161 402.702 468.714C403.923 469.268 404.868 470.043 405.536 471.037C406.21 472.024 406.548 473.171 406.548 474.478C406.548 475.309 406.381 476.133 406.047 476.95C405.713 477.766 405.113 478.668 404.246 479.656C403.387 480.643 402.165 481.825 400.582 483.203L397.972 485.611V485.749H406.814V490H390.663Z" fill="black"/>
</g>
<g filter="url(#filter3_d_0_1)">
<path d="M14.1236 281.088V285.094H4.02415V281.088H14.1236ZM17.8017 294V272.182H26.8145C28.448 272.182 29.8578 272.477 31.0439 273.066C32.237 273.648 33.1568 274.487 33.8031 275.58C34.4494 276.667 34.7725 277.956 34.7725 279.447C34.7725 280.96 34.4423 282.246 33.7818 283.304C33.1213 284.355 32.1838 285.158 30.9693 285.712C29.7548 286.259 28.3166 286.532 26.6547 286.532H20.9551V282.377H25.6745C26.47 282.377 27.1341 282.274 27.6667 282.068C28.2065 281.855 28.6149 281.536 28.8919 281.109C29.1689 280.676 29.3074 280.122 29.3074 279.447C29.3074 278.773 29.1689 278.215 28.8919 277.775C28.6149 277.327 28.2065 276.994 27.6667 276.773C27.127 276.546 26.4629 276.433 25.6745 276.433H23.0751V294H17.8017ZM30.0851 284.028L35.5183 294H29.7654L24.4387 284.028H30.0851Z" fill="black"/>
</g>
<g filter="url(#filter4_d_0_1)">
<path d="M146.124 281.088V285.094H136.024V281.088H146.124ZM149.802 294V272.182H158.814C160.448 272.182 161.858 272.477 163.044 273.066C164.237 273.648 165.157 274.487 165.803 275.58C166.449 276.667 166.773 277.956 166.773 279.447C166.773 280.96 166.442 282.246 165.782 283.304C165.121 284.355 164.184 285.158 162.969 285.712C161.755 286.259 160.317 286.532 158.655 286.532H152.955V282.377H157.675C158.47 282.377 159.134 282.274 159.667 282.068C160.206 281.855 160.615 281.536 160.892 281.109C161.169 280.676 161.307 280.122 161.307 279.447C161.307 278.773 161.169 278.215 160.892 277.775C160.615 277.327 160.206 276.994 159.667 276.773C159.127 276.546 158.463 276.433 157.675 276.433H155.075V294H149.802ZM162.085 284.028L167.518 294H161.765L156.439 284.028H162.085ZM179.764 271.159L172.733 297.281H168.291L175.322 271.159H179.764ZM181.663 294V290.207L189.621 283.24C190.218 282.7 190.726 282.207 191.145 281.759C191.564 281.305 191.884 280.85 192.104 280.396C192.324 279.934 192.434 279.433 192.434 278.893C192.434 278.29 192.303 277.775 192.04 277.349C191.777 276.915 191.415 276.582 190.953 276.347C190.491 276.113 189.962 275.996 189.366 275.996C188.762 275.996 188.233 276.12 187.778 276.369C187.324 276.61 186.969 276.962 186.713 277.423C186.464 277.885 186.34 278.446 186.34 279.107H181.344C181.344 277.622 181.678 276.34 182.345 275.261C183.013 274.181 183.95 273.35 185.158 272.768C186.372 272.178 187.782 271.884 189.387 271.884C191.042 271.884 192.48 272.161 193.702 272.714C194.923 273.268 195.868 274.043 196.536 275.037C197.21 276.024 197.548 277.171 197.548 278.478C197.548 279.309 197.381 280.133 197.047 280.95C196.713 281.766 196.113 282.668 195.246 283.656C194.387 284.643 193.165 285.825 191.582 287.203L188.972 289.611V289.749H197.814V294H181.663Z" fill="black"/>
</g>
<g filter="url(#filter5_d_0_1)">
<path d="M622.651 294V272.182H631.664C633.298 272.182 634.707 272.477 635.893 273.066C637.087 273.648 638.006 274.487 638.653 275.58C639.299 276.667 639.622 277.956 639.622 279.447C639.622 280.96 639.292 282.246 638.631 283.304C637.971 284.355 637.033 285.158 635.819 285.712C634.604 286.259 633.166 286.532 631.504 286.532H625.805V282.377H630.524C631.32 282.377 631.984 282.274 632.516 282.068C633.056 281.855 633.464 281.536 633.741 281.109C634.018 280.676 634.157 280.122 634.157 279.447C634.157 278.773 634.018 278.215 633.741 277.775C633.464 277.327 633.056 276.994 632.516 276.773C631.977 276.546 631.313 276.433 630.524 276.433H627.925V294H622.651ZM634.935 284.028L640.368 294H634.615L629.288 284.028H634.935Z" fill="black"/>
</g>
<g filter="url(#filter6_d_0_1)">
<path d="M453.651 294V272.182H462.664C464.298 272.182 465.707 272.477 466.893 273.066C468.087 273.648 469.006 274.487 469.653 275.58C470.299 276.667 470.622 277.956 470.622 279.447C470.622 280.96 470.292 282.246 469.631 283.304C468.971 284.355 468.033 285.158 466.819 285.712C465.604 286.259 464.166 286.532 462.504 286.532H456.805V282.377H461.524C462.32 282.377 462.984 282.274 463.516 282.068C464.056 281.855 464.464 281.536 464.741 281.109C465.018 280.676 465.157 280.122 465.157 279.447C465.157 278.773 465.018 278.215 464.741 277.775C464.464 277.327 464.056 276.994 463.516 276.773C462.977 276.546 462.313 276.433 461.524 276.433H458.925V294H453.651ZM465.935 284.028L471.368 294H465.615L460.288 284.028H465.935ZM483.614 271.159L476.583 297.281H472.14L479.172 271.159H483.614ZM485.513 294V290.207L493.471 283.24C494.068 282.7 494.575 282.207 494.994 281.759C495.414 281.305 495.733 280.85 495.953 280.396C496.173 279.934 496.284 279.433 496.284 278.893C496.284 278.29 496.152 277.775 495.889 277.349C495.627 276.915 495.264 276.582 494.803 276.347C494.341 276.113 493.812 275.996 493.215 275.996C492.612 275.996 492.083 276.12 491.628 276.369C491.173 276.61 490.818 276.962 490.563 277.423C490.314 277.885 490.19 278.446 490.19 279.107H485.193C485.193 277.622 485.527 276.34 486.195 275.261C486.862 274.181 487.8 273.35 489.007 272.768C490.222 272.178 491.632 271.884 493.237 271.884C494.892 271.884 496.33 272.161 497.551 272.714C498.773 273.268 499.718 274.043 500.385 275.037C501.06 276.024 501.397 277.171 501.397 278.478C501.397 279.309 501.23 280.133 500.896 280.95C500.563 281.766 499.963 282.668 499.096 283.656C498.237 284.643 497.015 285.825 495.431 287.203L492.821 289.611V289.749H501.664V294H485.513Z" fill="black"/>
</g>
<g filter="url(#filter7_d_0_1)">
<path d="M363.651 31V9.18182H372.664C374.298 9.18182 375.707 9.47656 376.893 10.0661C378.087 10.6484 379.006 11.4865 379.653 12.5803C380.299 13.6669 380.622 14.956 380.622 16.4474C380.622 17.9602 380.292 19.2457 379.631 20.304C378.971 21.3551 378.033 22.1577 376.819 22.7116C375.604 23.2585 374.166 23.532 372.504 23.532H366.805V19.3771H371.524C372.32 19.3771 372.984 19.2741 373.516 19.0682C374.056 18.8551 374.464 18.5355 374.741 18.1094C375.018 17.6761 375.157 17.1222 375.157 16.4474C375.157 15.7727 375.018 15.2152 374.741 14.7749C374.464 14.3274 374.056 13.9936 373.516 13.7734C372.977 13.5462 372.313 13.4325 371.524 13.4325H368.925V31H363.651ZM375.935 21.0284L381.368 31H375.615L370.288 21.0284H375.935Z" fill="black"/>
</g>
<g filter="url(#filter8_d_0_1)">
<path d="M288.903 5.18182H294.794L299.407 14.3118H299.599L304.211 5.18182H310.103L302.123 19.7131V27H296.882V19.7131L288.903 5.18182Z" fill="black"/>
</g>
<g filter="url(#filter9_d_0_1)">
<path d="M637.989 353.182L641.973 360.075H642.143L646.17 353.182H652.072L645.489 364.091L652.286 375H646.234L642.143 368.033H641.973L637.882 375H631.874L638.638 364.091L632.044 353.182H637.989Z" fill="black"/>
</g>
<line x1="331.061" y1="169.939" x2="480.061" y2="318.939" stroke="#8E5B07" stroke-width="3"/>
<path d="M330 471C423.204 461.473 474.994 403.737 479 322" stroke="#8E5B07" stroke-width="3"/>
<defs>
<filter id="filter0_d_0_1" x="359.651" y="157.159" width="56.0122" height="34.1222" filterUnits="userSpaceOnUse" color-interpolation-filters="sRGB">
<feFlood flood-opacity="0" result="BackgroundImageFix"/>
<feColorMatrix in="SourceAlpha" type="matrix" values="0 0 0 0 0 0 0 0 0 0 0 0 0 0 0 0 0 0 127 0" result="hardAlpha"/>
<feOffset dy="4"/>
<feGaussianBlur stdDeviation="2"/>
<feComposite in2="hardAlpha" operator="out"/>
<feColorMatrix type="matrix" values="0 0 0 0 0 0 0 0 0 0 0 0 0 0 0 0 0 0 0.25 0"/>
<feBlend mode="normal" in2="BackgroundImageFix" result="effect1_dropShadow_0_1"/>
<feBlend mode="normal" in="SourceGraphic" in2="effect1_dropShadow_0_1" result="shape"/>
</filter>
<filter id="filter1_d_0_1" x="342.024" y="609.182" width="39.4941" height="29.8182" filterUnits="userSpaceOnUse" color-interpolation-filters="sRGB">
<feFlood flood-opacity="0" result="BackgroundImageFix"/>
<feColorMatrix in="SourceAlpha" type="matrix" values="0 0 0 0 0 0 0 0 0 0 0 0 0 0 0 0 0 0 127 0" result="hardAlpha"/>
<feOffset dy="4"/>
<feGaussianBlur stdDeviation="2"/>
<feComposite in2="hardAlpha" operator="out"/>
<feColorMatrix type="matrix" values="0 0 0 0 0 0 0 0 0 0 0 0 0 0 0 0 0 0 0.25 0"/>
<feBlend mode="normal" in2="BackgroundImageFix" result="effect1_dropShadow_0_1"/>
<feBlend mode="normal" in="SourceGraphic" in2="effect1_dropShadow_0_1" result="shape"/>
</filter>
<filter id="filter2_d_0_1" x="341.024" y="467.159" width="69.7898" height="34.1222" filterUnits="userSpaceOnUse" color-interpolation-filters="sRGB">
<feFlood flood-opacity="0" result="BackgroundImageFix"/>
<feColorMatrix in="SourceAlpha" type="matrix" values="0 0 0 0 0 0 0 0 0 0 0 0 0 0 0 0 0 0 127 0" result="hardAlpha"/>
<feOffset dy="4"/>
<feGaussianBlur stdDeviation="2"/>
<feComposite in2="hardAlpha" operator="out"/>
<feColorMatrix type="matrix" values="0 0 0 0 0 0 0 0 0 0 0 0 0 0 0 0 0 0 0.25 0"/>
<feBlend mode="normal" in2="BackgroundImageFix" result="effect1_dropShadow_0_1"/>
<feBlend mode="normal" in="SourceGraphic" in2="effect1_dropShadow_0_1" result="shape"/>
</filter>
<filter id="filter3_d_0_1" x="0.0241394" y="272.182" width="39.4941" height="29.8182" filterUnits="userSpaceOnUse" color-interpolation-filters="sRGB">
<feFlood flood-opacity="0" result="BackgroundImageFix"/>
<feColorMatrix in="SourceAlpha" type="matrix" values="0 0 0 0 0 0 0 0 0 0 0 0 0 0 0 0 0 0 127 0" result="hardAlpha"/>
<feOffset dy="4"/>
<feGaussianBlur stdDeviation="2"/>
<feComposite in2="hardAlpha" operator="out"/>
<feColorMatrix type="matrix" values="0 0 0 0 0 0 0 0 0 0 0 0 0 0 0 0 0 0 0.25 0"/>
<feBlend mode="normal" in2="BackgroundImageFix" result="effect1_dropShadow_0_1"/>
<feBlend mode="normal" in="SourceGraphic" in2="effect1_dropShadow_0_1" result="shape"/>
</filter>
<filter id="filter4_d_0_1" x="132.024" y="271.159" width="69.7898" height="34.1222" filterUnits="userSpaceOnUse" color-interpolation-filters="sRGB">
<feFlood flood-opacity="0" result="BackgroundImageFix"/>
<feColorMatrix in="SourceAlpha" type="matrix" values="0 0 0 0 0 0 0 0 0 0 0 0 0 0 0 0 0 0 127 0" result="hardAlpha"/>
<feOffset dy="4"/>
<feGaussianBlur stdDeviation="2"/>
<feComposite in2="hardAlpha" operator="out"/>
<feColorMatrix type="matrix" values="0 0 0 0 0 0 0 0 0 0 0 0 0 0 0 0 0 0 0.25 0"/>
<feBlend mode="normal" in2="BackgroundImageFix" result="effect1_dropShadow_0_1"/>
<feBlend mode="normal" in="SourceGraphic" in2="effect1_dropShadow_0_1" result="shape"/>
</filter>
<filter id="filter5_d_0_1" x="618.651" y="272.182" width="25.7166" height="29.8182" filterUnits="userSpaceOnUse" color-interpolation-filters="sRGB">
<feFlood flood-opacity="0" result="BackgroundImageFix"/>
<feColorMatrix in="SourceAlpha" type="matrix" values="0 0 0 0 0 0 0 0 0 0 0 0 0 0 0 0 0 0 127 0" result="hardAlpha"/>
<feOffset dy="4"/>
<feGaussianBlur stdDeviation="2"/>
<feComposite in2="hardAlpha" operator="out"/>
<feColorMatrix type="matrix" values="0 0 0 0 0 0 0 0 0 0 0 0 0 0 0 0 0 0 0.25 0"/>
<feBlend mode="normal" in2="BackgroundImageFix" result="effect1_dropShadow_0_1"/>
<feBlend mode="normal" in="SourceGraphic" in2="effect1_dropShadow_0_1" result="shape"/>
</filter>
<filter id="filter6_d_0_1" x="449.651" y="271.159" width="56.0123" height="34.1222" filterUnits="userSpaceOnUse" color-interpolation-filters="sRGB">
<feFlood flood-opacity="0" result="BackgroundImageFix"/>
<feColorMatrix in="SourceAlpha" type="matrix" values="0 0 0 0 0 0 0 0 0 0 0 0 0 0 0 0 0 0 127 0" result="hardAlpha"/>
<feOffset dy="4"/>
<feGaussianBlur stdDeviation="2"/>
<feComposite in2="hardAlpha" operator="out"/>
<feColorMatrix type="matrix" values="0 0 0 0 0 0 0 0 0 0 0 0 0 0 0 0 0 0 0.25 0"/>
<feBlend mode="normal" in2="BackgroundImageFix" result="effect1_dropShadow_0_1"/>
<feBlend mode="normal" in="SourceGraphic" in2="effect1_dropShadow_0_1" result="shape"/>
</filter>
<filter id="filter7_d_0_1" x="359.651" y="9.18182" width="25.7166" height="29.8182" filterUnits="userSpaceOnUse" color-interpolation-filters="sRGB">
<feFlood flood-opacity="0" result="BackgroundImageFix"/>
<feColorMatrix in="SourceAlpha" type="matrix" values="0 0 0 0 0 0 0 0 0 0 0 0 0 0 0 0 0 0 127 0" result="hardAlpha"/>
<feOffset dy="4"/>
<feGaussianBlur stdDeviation="2"/>
<feComposite in2="hardAlpha" operator="out"/>
<feColorMatrix type="matrix" values="0 0 0 0 0 0 0 0 0 0 0 0 0 0 0 0 0 0 0.25 0"/>
<feBlend mode="normal" in2="BackgroundImageFix" result="effect1_dropShadow_0_1"/>
<feBlend mode="normal" in="SourceGraphic" in2="effect1_dropShadow_0_1" result="shape"/>
</filter>
<filter id="filter8_d_0_1" x="284.903" y="5.18182" width="29.2003" height="29.8182" filterUnits="userSpaceOnUse" color-interpolation-filters="sRGB">
<feFlood flood-opacity="0" result="BackgroundImageFix"/>
<feColorMatrix in="SourceAlpha" type="matrix" values="0 0 0 0 0 0 0 0 0 0 0 0 0 0 0 0 0 0 127 0" result="hardAlpha"/>
<feOffset dy="4"/>
<feGaussianBlur stdDeviation="2"/>
<feComposite in2="hardAlpha" operator="out"/>
<feColorMatrix type="matrix" values="0 0 0 0 0 0 0 0 0 0 0 0 0 0 0 0 0 0 0.25 0"/>
<feBlend mode="normal" in2="BackgroundImageFix" result="effect1_dropShadow_0_1"/>
<feBlend mode="normal" in="SourceGraphic" in2="effect1_dropShadow_0_1" result="shape"/>
</filter>
<filter id="filter9_d_0_1" x="627.874" y="353.182" width="28.412" height="29.8182" filterUnits="userSpaceOnUse" color-interpolation-filters="sRGB">
<feFlood flood-opacity="0" result="BackgroundImageFix"/>
<feColorMatrix in="SourceAlpha" type="matrix" values="0 0 0 0 0 0 0 0 0 0 0 0 0 0 0 0 0 0 127 0" result="hardAlpha"/>
<feOffset dy="4"/>
<feGaussianBlur stdDeviation="2"/>
<feComposite in2="hardAlpha" operator="out"/>
<feColorMatrix type="matrix" values="0 0 0 0 0 0 0 0 0 0 0 0 0 0 0 0 0 0 0.25 0"/>
<feBlend mode="normal" in2="BackgroundImageFix" result="effect1_dropShadow_0_1"/>
<feBlend mode="normal" in="SourceGraphic" in2="effect1_dropShadow_0_1" result="shape"/>
</filter>
</defs>
</svg>
